<?xml version="1.0" standalone="no"?>
<!DOCTYPE svg PUBLIC "-//W3C//DTD SVG 20010904//EN"
 "http://www.w3.org/TR/2001/REC-SVG-20010904/DTD/svg10.dtd">
<svg version="1.0" xmlns="http://www.w3.org/2000/svg"
 width="900.000000pt" height="500.000000pt" viewBox="0 0 900.000000 500.000000"
 preserveAspectRatio="xMidYMid meet">

<g transform="translate(0.000000,500.000000) scale(0.100000,-0.100000)"
fill="#000000" stroke="none">
<path d="M4489 4070 c-9 -5 -21 -22 -27 -37 -6 -16 -87 -370 -181 -788 -94
-418 -245 -1091 -336 -1495 -91 -404 -165 -745 -165 -758 0 -12 11 -34 25 -47
l24 -25 294 0 c266 0 297 2 316 18 23 18 19 3 236 967 42 187 103 457 135 600
32 143 97 433 145 645 47 212 109 483 136 602 56 249 58 276 26 306 -23 22
-29 22 -318 22 -166 0 -301 -5 -310 -10z m467 -167 c-3 -10 -145 -639 -316
-1398 -170 -759 -312 -1390 -315 -1402 -5 -23 -7 -23 -180 -23 -140 0 -175 3
-175 13 0 8 140 634 311 1393 170 758 313 1391 316 1407 l6 27 179 0 c166 0
179 -1 174 -17z"/>
<path d="M2687 3173 c-360 -359 -615 -621 -623 -641 -13 -29 -13 -37 1 -65 8
-18 289 -306 623 -640 596 -595 608 -607 647 -607 37 0 47 8 227 188 104 103
191 197 194 209 3 12 3 32 -1 45 -4 13 -190 206 -413 431 l-407 407 396 398
c218 218 404 408 413 422 34 52 27 63 -176 267 -186 187 -194 193 -232 193
-40 0 -47 -6 -649 -607z m455 -226 c-383 -384 -412 -415 -412 -447 0 -32 29
-63 412 -447 l413 -413 -110 -110 -110 -110 -540 540 -540 540 540 540 540
540 110 -110 110 -110 -413 -413z"/>
<path d="M5432 3587 c-212 -213 -213 -215 -163 -283 16 -21 202 -211 413 -422
l383 -382 -402 -402 c-221 -221 -407 -414 -414 -430 -6 -15 -9 -38 -6 -50 4
-13 91 -107 195 -210 180 -180 190 -188 227 -188 39 0 51 12 647 607 334 334
615 622 623 640 14 28 14 36 1 65 -8 20 -263 282 -623 641 -602 601 -609 607
-649 607 -38 0 -46 -6 -232 -193z m773 -547 l540 -540 -540 -540 -540 -540
-110 108 -111 107 413 415 c384 386 413 418 413 450 0 32 -29 64 -415 450
l-415 415 107 108 c60 59 110 107 113 107 3 0 248 -243 545 -540z"/>
</g>
</svg>
