<?xml version="1.0" standalone="no"?>
<!DOCTYPE svg PUBLIC "-//W3C//DTD SVG 20010904//EN"
 "http://www.w3.org/TR/2001/REC-SVG-20010904/DTD/svg10.dtd">
<svg version="1.0" xmlns="http://www.w3.org/2000/svg"
 width="200.000000pt" height="200.000000pt" viewBox="0 0 200.000000 200.000000"
 preserveAspectRatio="xMidYMid meet">

<g transform="translate(0.000000,200.000000) scale(0.100000,-0.100000)"
fill="#000000" stroke="none">
<path d="M690 1544 c-167 -96 -308 -174 -312 -174 -5 0 -8 -165 -8 -367 l0
-368 306 -175 c168 -96 314 -175 324 -175 10 0 156 79 325 175 l305 175 -2
364 c-3 311 -5 365 -18 373 -80 46 -611 348 -613 347 -1 0 -139 -79 -307 -175z
m581 -86 l258 -153 0 -305 1 -305 -265 -153 -265 -152 -265 152 -265 153 0
306 0 305 77 44 c43 24 159 92 258 152 99 59 186 108 194 108 8 0 130 -69 272
-152z"/>
<path d="M936 1338 c-6 -29 -13 -36 -63 -55 -51 -19 -59 -20 -73 -8 -25 22
-43 18 -75 -15 -28 -30 -29 -31 -13 -58 16 -27 16 -32 -4 -85 -16 -45 -25 -57
-42 -57 -37 0 -47 -14 -44 -61 3 -39 6 -44 34 -52 25 -7 35 -19 54 -63 21 -51
21 -56 6 -79 -19 -30 -10 -55 29 -81 23 -15 27 -15 51 1 24 16 28 15 79 -6 43
-18 55 -28 62 -53 6 -21 16 -32 31 -34 21 -3 22 0 22 62 0 64 -1 66 -25 66
-34 0 -91 24 -133 57 -71 54 -104 191 -66 281 30 72 106 131 187 146 l37 7 0
59 c0 57 -1 60 -24 60 -19 0 -25 -7 -30 -32z"/>
<path d="M1082 1338 c-14 -14 -16 -40 -2 -54 5 -5 10 -29 12 -54 l3 -45 -37
-3 c-50 -4 -49 -22 0 -22 50 0 62 14 62 72 0 26 5 48 10 48 17 0 12 57 -6 64
-22 8 -28 8 -42 -6z"/>
<path d="M1210 1215 c-10 -12 -10 -21 -2 -38 12 -24 15 -40 13 -74 -1 -22 -4
-23 -101 -23 -83 0 -100 -3 -100 -15 0 -14 16 -15 105 -13 117 3 124 7 125 68
0 19 7 43 15 54 29 38 -24 78 -55 41z"/>
<path d="M915 1176 c-155 -69 -150 -285 7 -351 71 -29 68 -36 68 175 l0 190
-22 0 c-13 -1 -36 -7 -53 -14z"/>
<path d="M1020 1118 c0 -10 17 -12 70 -10 87 4 84 18 -5 21 -48 1 -65 -1 -65
-11z"/>
<path d="M1310 1025 c-10 -12 -40 -15 -151 -15 -86 0 -139 -4 -139 -10 0 -6
55 -10 145 -10 80 0 145 -4 145 -9 0 -26 54 -21 64 5 15 40 -37 71 -64 39z"/>
<path d="M1020 938 c0 -10 25 -12 99 -10 l98 3 6 -28 c3 -16 -1 -42 -11 -62
-24 -52 14 -93 52 -55 15 15 15 18 1 40 -8 13 -15 37 -15 54 0 65 -9 70 -125
70 -77 0 -105 -3 -105 -12z"/>
<path d="M1020 885 c0 -16 42 -20 101 -8 28 5 30 7 14 14 -11 4 -41 8 -67 8
-36 1 -48 -3 -48 -14z"/>
<path d="M1020 836 c0 -10 13 -16 38 -18 36 -3 37 -4 38 -43 1 -23 -5 -47 -13
-57 -22 -25 -12 -52 19 -56 35 -4 56 29 33 52 -9 8 -15 33 -15 60 0 27 -6 51
-16 60 -20 21 -84 22 -84 2z"/>
</g>
</svg>
